<svg xmlns="http://www.w3.org/2000/svg" xmlns:xlink="http://www.w3.org/1999/xlink" zoomAndPan="magnify" preserveAspectRatio="xMidYMid meet" version="1.0" viewBox="61.31 119.56 254.35 130.96"><defs><g/><clipPath id="bc8054ff91"><path d="M 63.5 119.558594 L 311.75 119.558594 L 311.75 189.308594 L 63.5 189.308594 Z M 63.5 119.558594 " clip-rule="nonzero"/></clipPath></defs><g fill="#364860" fill-opacity="1"><g transform="translate(59.997414, 221.076561)"><g><path d="M 5.453125 -7.28125 L 5.453125 0 L 1.3125 0 L 1.3125 -18.15625 L 5.453125 -18.15625 L 5.453125 -10.90625 L 11.3125 -10.90625 L 11.3125 -18.15625 L 15.4375 -18.15625 L 15.4375 0 L 11.3125 0 L 11.3125 -7.28125 Z M 5.453125 -7.28125 "/></g></g></g><g fill="#364860" fill-opacity="1"><g transform="translate(83.578422, 221.076561)"><g><path d="M 5.453125 -18.15625 L 5.453125 0 L 1.3125 0 L 1.3125 -18.15625 Z M 5.453125 -18.15625 "/></g></g></g><g fill="#364860" fill-opacity="1"><g transform="translate(97.1732, 221.076561)"><g><path d="M 17.734375 -10.15625 L 17.734375 -6.21875 C 17.265625 -4.0625 16.238281 -2.429688 14.65625 -1.328125 C 13.070312 -0.222656 11.300781 0.328125 9.34375 0.328125 C 6.894531 0.328125 4.804688 -0.585938 3.078125 -2.421875 C 1.359375 -4.253906 0.5 -6.46875 0.5 -9.0625 C 0.5 -11.707031 1.34375 -13.9375 3.03125 -15.75 C 4.71875 -17.570312 6.820312 -18.484375 9.34375 -18.484375 C 12.289062 -18.484375 14.625 -17.445312 16.34375 -15.375 L 13.640625 -12.40625 C 12.671875 -13.957031 11.320312 -14.734375 9.59375 -14.734375 C 8.3125 -14.734375 7.21875 -14.179688 6.3125 -13.078125 C 5.414062 -11.972656 4.96875 -10.632812 4.96875 -9.0625 C 4.96875 -7.519531 5.414062 -6.203125 6.3125 -5.109375 C 7.21875 -4.015625 8.3125 -3.46875 9.59375 -3.46875 C 10.644531 -3.46875 11.5625 -3.785156 12.34375 -4.421875 C 13.132812 -5.066406 13.53125 -5.914062 13.53125 -6.96875 L 9.34375 -6.96875 L 9.34375 -10.15625 Z M 17.734375 -10.15625 "/></g></g></g><g fill="#364860" fill-opacity="1"><g transform="translate(122.227943, 221.076561)"><g><path d="M 5.453125 -7.28125 L 5.453125 0 L 1.3125 0 L 1.3125 -18.15625 L 5.453125 -18.15625 L 5.453125 -10.90625 L 11.3125 -10.90625 L 11.3125 -18.15625 L 15.4375 -18.15625 L 15.4375 0 L 11.3125 0 L 11.3125 -7.28125 Z M 5.453125 -7.28125 "/></g></g></g><g fill="#364860" fill-opacity="1"><g transform="translate(145.808951, 221.076561)"><g/></g></g><g fill="#364860" fill-opacity="1"><g transform="translate(158.633874, 221.076561)"><g><path d="M 10.984375 -3.734375 C 11.609375 -3.734375 12.21875 -3.828125 12.8125 -4.015625 C 13.40625 -4.210938 13.84375 -4.398438 14.125 -4.578125 L 14.546875 -4.859375 L 16.296875 -1.34375 C 16.242188 -1.300781 16.164062 -1.242188 16.0625 -1.171875 C 15.957031 -1.097656 15.71875 -0.960938 15.34375 -0.765625 C 14.96875 -0.566406 14.566406 -0.390625 14.140625 -0.234375 C 13.722656 -0.0859375 13.164062 0.0390625 12.46875 0.15625 C 11.78125 0.269531 11.070312 0.328125 10.34375 0.328125 C 8.65625 0.328125 7.054688 -0.0820312 5.546875 -0.90625 C 4.035156 -1.738281 2.816406 -2.878906 1.890625 -4.328125 C 0.960938 -5.785156 0.5 -7.359375 0.5 -9.046875 C 0.5 -10.316406 0.769531 -11.535156 1.3125 -12.703125 C 1.863281 -13.878906 2.585938 -14.882812 3.484375 -15.71875 C 4.390625 -16.5625 5.441406 -17.234375 6.640625 -17.734375 C 7.847656 -18.234375 9.082031 -18.484375 10.34375 -18.484375 C 11.507812 -18.484375 12.585938 -18.34375 13.578125 -18.0625 C 14.566406 -17.78125 15.269531 -17.5 15.6875 -17.21875 L 16.296875 -16.8125 L 14.546875 -13.28125 C 14.441406 -13.375 14.285156 -13.484375 14.078125 -13.609375 C 13.867188 -13.734375 13.457031 -13.894531 12.84375 -14.09375 C 12.226562 -14.300781 11.609375 -14.40625 10.984375 -14.40625 C 9.984375 -14.40625 9.085938 -14.242188 8.296875 -13.921875 C 7.503906 -13.597656 6.875 -13.171875 6.40625 -12.640625 C 5.945312 -12.117188 5.597656 -11.550781 5.359375 -10.9375 C 5.117188 -10.332031 5 -9.71875 5 -9.09375 C 5 -7.707031 5.515625 -6.46875 6.546875 -5.375 C 7.578125 -4.28125 9.054688 -3.734375 10.984375 -3.734375 Z M 10.984375 -3.734375 "/></g></g></g><g fill="#364860" fill-opacity="1"><g transform="translate(182.01691, 221.076561)"><g><path d="M 0.5 -9.09375 C 0.5 -11.71875 1.394531 -13.9375 3.1875 -15.75 C 4.976562 -17.570312 7.132812 -18.484375 9.65625 -18.484375 C 12.195312 -18.484375 14.351562 -17.578125 16.125 -15.765625 C 17.894531 -13.953125 18.78125 -11.726562 18.78125 -9.09375 C 18.78125 -6.4375 17.90625 -4.203125 16.15625 -2.390625 C 14.414062 -0.578125 12.25 0.328125 9.65625 0.328125 C 7 0.328125 4.804688 -0.566406 3.078125 -2.359375 C 1.359375 -4.160156 0.5 -6.40625 0.5 -9.09375 Z M 4.96875 -9.09375 C 4.96875 -8.132812 5.113281 -7.257812 5.40625 -6.46875 C 5.707031 -5.6875 6.222656 -5.023438 6.953125 -4.484375 C 7.679688 -3.941406 8.582031 -3.671875 9.65625 -3.671875 C 11.195312 -3.671875 12.359375 -4.195312 13.140625 -5.25 C 13.929688 -6.3125 14.328125 -7.59375 14.328125 -9.09375 C 14.328125 -10.570312 13.925781 -11.84375 13.125 -12.90625 C 12.320312 -13.96875 11.164062 -14.5 9.65625 -14.5 C 8.15625 -14.5 7 -13.96875 6.1875 -12.90625 C 5.375 -11.84375 4.96875 -10.570312 4.96875 -9.09375 Z M 4.96875 -9.09375 "/></g></g></g><g fill="#364860" fill-opacity="1"><g transform="translate(208.127462, 221.076561)"><g><path d="M 15.265625 -18.15625 L 15.265625 -6.453125 C 15.265625 -4.222656 14.660156 -2.535156 13.453125 -1.390625 C 12.253906 -0.242188 10.492188 0.328125 8.171875 0.328125 C 5.859375 0.328125 4.097656 -0.242188 2.890625 -1.390625 C 1.691406 -2.535156 1.09375 -4.222656 1.09375 -6.453125 L 1.09375 -18.15625 L 5.234375 -18.15625 L 5.234375 -7.65625 C 5.234375 -6.1875 5.460938 -5.164062 5.921875 -4.59375 C 6.390625 -4.019531 7.144531 -3.734375 8.1875 -3.734375 C 9.226562 -3.734375 9.976562 -4.019531 10.4375 -4.59375 C 10.894531 -5.164062 11.125 -6.1875 11.125 -7.65625 L 11.125 -18.15625 Z M 15.265625 -18.15625 "/></g></g></g><g fill="#364860" fill-opacity="1"><g transform="translate(231.312538, 221.076561)"><g><path d="M 5.453125 -11.265625 L 5.453125 0 L 1.3125 0 L 1.3125 -18.15625 L 5.453125 -18.15625 L 12.671875 -6.890625 L 12.71875 -6.890625 L 12.71875 -18.15625 L 16.859375 -18.15625 L 16.859375 0 L 12.71875 0 L 5.5 -11.265625 Z M 5.453125 -11.265625 "/></g></g></g><g fill="#364860" fill-opacity="1"><g transform="translate(256.301295, 221.076561)"><g><path d="M 0.171875 -14.515625 L 0.171875 -18.15625 L 12.9375 -18.15625 L 12.9375 -14.515625 L 8.625 -14.515625 L 8.625 0 L 4.484375 0 L 4.484375 -14.515625 Z M 0.171875 -14.515625 "/></g></g></g><g fill="#364860" fill-opacity="1"><g transform="translate(276.23095, 221.076561)"><g><path d="M 1.3125 -18.15625 L 7.8125 -18.15625 C 9.550781 -18.15625 10.972656 -17.6875 12.078125 -16.75 C 13.179688 -15.820312 13.734375 -14.492188 13.734375 -12.765625 C 13.734375 -11.429688 13.394531 -10.3125 12.71875 -9.40625 C 12.050781 -8.5 11.148438 -7.863281 10.015625 -7.5 L 16.265625 0 L 11 0 L 5.453125 -7.171875 L 5.453125 0 L 1.3125 0 Z M 5.453125 -10.09375 L 5.9375 -10.09375 C 6.320312 -10.09375 6.644531 -10.097656 6.90625 -10.109375 C 7.164062 -10.128906 7.460938 -10.179688 7.796875 -10.265625 C 8.140625 -10.359375 8.414062 -10.484375 8.625 -10.640625 C 8.832031 -10.804688 9.007812 -11.039062 9.15625 -11.34375 C 9.300781 -11.65625 9.375 -12.03125 9.375 -12.46875 C 9.375 -12.914062 9.300781 -13.289062 9.15625 -13.59375 C 9.007812 -13.90625 8.832031 -14.140625 8.625 -14.296875 C 8.414062 -14.460938 8.140625 -14.585938 7.796875 -14.671875 C 7.460938 -14.765625 7.164062 -14.816406 6.90625 -14.828125 C 6.644531 -14.835938 6.320312 -14.84375 5.9375 -14.84375 L 5.453125 -14.84375 Z M 5.453125 -10.09375 "/></g></g></g><g fill="#364860" fill-opacity="1"><g transform="translate(298.80014, 221.076561)"><g><path d="M -0.65625 -18.15625 L 4.3125 -18.15625 L 8.09375 -12.34375 L 11.875 -18.15625 L 16.859375 -18.15625 L 10.15625 -8.140625 L 10.15625 0 L 6.03125 0 L 6.03125 -8.140625 Z M -0.65625 -18.15625 "/></g></g></g><g fill="#364860" fill-opacity="1"><g transform="translate(116.970666, 250.360136)"><g><path d="M 1.375 0 L 1.375 -11.84375 L 4.71875 -11.84375 C 5.75 -11.84375 6.660156 -11.613281 7.453125 -11.15625 C 8.242188 -10.695312 8.851562 -10.046875 9.28125 -9.203125 C 9.71875 -8.367188 9.9375 -7.40625 9.9375 -6.3125 L 9.9375 -5.5625 C 9.9375 -4.445312 9.71875 -3.46875 9.28125 -2.625 C 8.851562 -1.78125 8.238281 -1.132812 7.4375 -0.6875 C 6.644531 -0.238281 5.71875 -0.0078125 4.65625 0 Z M 2.9375 -10.5625 L 2.9375 -1.28125 L 4.578125 -1.28125 C 5.785156 -1.28125 6.722656 -1.648438 7.390625 -2.390625 C 8.054688 -3.140625 8.390625 -4.207031 8.390625 -5.59375 L 8.390625 -6.28125 C 8.390625 -7.625 8.070312 -8.671875 7.4375 -9.421875 C 6.8125 -10.171875 5.914062 -10.550781 4.75 -10.5625 Z M 2.9375 -10.5625 "/></g></g></g><g fill="#364860" fill-opacity="1"><g transform="translate(141.219639, 250.360136)"><g><path d="M 3.046875 0 L 1.484375 0 L 1.484375 -11.84375 L 3.046875 -11.84375 Z M 3.046875 0 "/></g></g></g><g fill="#364860" fill-opacity="1"><g transform="translate(159.077626, 250.360136)"><g><path d="M 10.125 -1.546875 C 9.71875 -0.972656 9.15625 -0.546875 8.4375 -0.265625 C 7.71875 0.015625 6.878906 0.15625 5.921875 0.15625 C 4.960938 0.15625 4.109375 -0.0664062 3.359375 -0.515625 C 2.609375 -0.972656 2.03125 -1.617188 1.625 -2.453125 C 1.21875 -3.285156 1.007812 -4.25 1 -5.34375 L 1 -6.390625 C 1 -8.171875 1.410156 -9.550781 2.234375 -10.53125 C 3.066406 -11.507812 4.238281 -12 5.75 -12 C 6.988281 -12 7.984375 -11.679688 8.734375 -11.046875 C 9.484375 -10.421875 9.945312 -9.53125 10.125 -8.375 L 8.5625 -8.375 C 8.257812 -9.9375 7.328125 -10.71875 5.765625 -10.71875 C 4.710938 -10.71875 3.914062 -10.347656 3.375 -9.609375 C 2.832031 -8.878906 2.5625 -7.816406 2.5625 -6.421875 L 2.5625 -5.453125 C 2.5625 -4.128906 2.863281 -3.070312 3.46875 -2.28125 C 4.082031 -1.5 4.90625 -1.109375 5.9375 -1.109375 C 6.519531 -1.109375 7.03125 -1.171875 7.46875 -1.296875 C 7.914062 -1.429688 8.28125 -1.65625 8.5625 -1.96875 L 8.5625 -4.625 L 5.828125 -4.625 L 5.828125 -5.890625 L 10.125 -5.890625 Z M 10.125 -1.546875 "/></g></g></g><g fill="#364860" fill-opacity="1"><g transform="translate(183.749409, 250.360136)"><g><path d="M 3.046875 0 L 1.484375 0 L 1.484375 -11.84375 L 3.046875 -11.84375 Z M 3.046875 0 "/></g></g></g><g fill="#364860" fill-opacity="1"><g transform="translate(201.607399, 250.360136)"><g><path d="M 9.5625 -10.5625 L 5.75 -10.5625 L 5.75 0 L 4.203125 0 L 4.203125 -10.5625 L 0.40625 -10.5625 L 0.40625 -11.84375 L 9.5625 -11.84375 Z M 9.5625 -10.5625 "/></g></g></g><g fill="#364860" fill-opacity="1"><g transform="translate(224.872515, 250.360136)"><g><path d="M 7.90625 -3.09375 L 2.953125 -3.09375 L 1.84375 0 L 0.234375 0 L 4.75 -11.84375 L 6.109375 -11.84375 L 10.640625 0 L 9.046875 0 Z M 3.421875 -4.375 L 7.453125 -4.375 L 5.4375 -9.90625 Z M 3.421875 -4.375 "/></g></g></g><g fill="#364860" fill-opacity="1"><g transform="translate(249.064568, 250.360136)"><g><path d="M 2.9375 -1.28125 L 8.5625 -1.28125 L 8.5625 0 L 1.375 0 L 1.375 -11.84375 L 2.9375 -11.84375 Z M 2.9375 -1.28125 "/></g></g></g><g clip-path="url(#bc8054ff91)"><path fill="#2c3644" d="M 63.503906 189.253906 L 114.910156 154.433594 L 131.144531 165.9375 L 189.988281 119.617188 L 224.488281 154.433594 L 248.835938 132.445312 L 270.484375 159.421875 L 281.304688 151.683594 L 311.746094 186.046875 L 274.542969 168.179688 L 255.601562 183.296875 L 261.691406 165.9375 L 244.78125 147.414062 L 196.878906 186.046875 L 210.285156 159.421875 L 193.375 138.855469 L 181.199219 154.433594 L 179.84375 136.105469 L 124.378906 180.089844 L 126.410156 169.550781 L 115.585938 162.679688 L 100.707031 176.882812 L 107.46875 165.9375 L 63.503906 189.253906 " fill-opacity="1" fill-rule="nonzero"/></g></svg>