<svg xmlns="http://www.w3.org/2000/svg" xmlns:xlink="http://www.w3.org/1999/xlink" width="615" zoomAndPan="magnify" viewBox="0 0 461.25 215.249992" height="287" preserveAspectRatio="xMidYMid meet" version="1.0"><defs><g/><clipPath id="4ce528243b"><path d="M 21.117188 0 L 435.886719 0 L 435.886719 116.535156 L 21.117188 116.535156 Z M 21.117188 0 " clip-rule="nonzero"/></clipPath></defs><g fill="#ffffff" fill-opacity="1"><g transform="translate(15.268, 165.853858)"><g><path d="M 9.109375 -12.171875 L 9.109375 0 L 2.203125 0 L 2.203125 -30.3125 L 9.109375 -30.3125 L 9.109375 -18.234375 L 18.890625 -18.234375 L 18.890625 -30.3125 L 25.796875 -30.3125 L 25.796875 0 L 18.890625 0 L 18.890625 -12.171875 Z M 9.109375 -12.171875 "/></g></g></g><g fill="#ffffff" fill-opacity="1"><g transform="translate(54.666546, 165.853858)"><g><path d="M 9.109375 -30.3125 L 9.109375 0 L 2.203125 0 L 2.203125 -30.3125 Z M 9.109375 -30.3125 "/></g></g></g><g fill="#ffffff" fill-opacity="1"><g transform="translate(77.380356, 165.853858)"><g><path d="M 29.625 -16.984375 L 29.625 -10.40625 C 28.832031 -6.800781 27.113281 -4.070312 24.46875 -2.21875 C 21.820312 -0.375 18.875 0.546875 15.625 0.546875 C 11.53125 0.546875 8.039062 -0.984375 5.15625 -4.046875 C 2.28125 -7.109375 0.84375 -10.804688 0.84375 -15.140625 C 0.84375 -19.546875 2.25 -23.269531 5.0625 -26.3125 C 7.882812 -29.351562 11.40625 -30.875 15.625 -30.875 C 20.539062 -30.875 24.4375 -29.144531 27.3125 -25.6875 L 22.78125 -20.734375 C 21.164062 -23.328125 18.910156 -24.625 16.015625 -24.625 C 13.890625 -24.625 12.070312 -23.695312 10.5625 -21.84375 C 9.0625 -20 8.3125 -17.765625 8.3125 -15.140625 C 8.3125 -12.566406 9.0625 -10.367188 10.5625 -8.546875 C 12.070312 -6.722656 13.890625 -5.8125 16.015625 -5.8125 C 17.785156 -5.8125 19.320312 -6.34375 20.625 -7.40625 C 21.9375 -8.46875 22.59375 -9.882812 22.59375 -11.65625 L 15.625 -11.65625 L 15.625 -16.984375 Z M 29.625 -16.984375 "/></g></g></g><g fill="#ffffff" fill-opacity="1"><g transform="translate(119.241182, 165.853858)"><g><path d="M 9.109375 -12.171875 L 9.109375 0 L 2.203125 0 L 2.203125 -30.3125 L 9.109375 -30.3125 L 9.109375 -18.234375 L 18.890625 -18.234375 L 18.890625 -30.3125 L 25.796875 -30.3125 L 25.796875 0 L 18.890625 0 L 18.890625 -12.171875 Z M 9.109375 -12.171875 "/></g></g></g><g fill="#ffffff" fill-opacity="1"><g transform="translate(158.639729, 165.853858)"><g/></g></g><g fill="#ffffff" fill-opacity="1"><g transform="translate(180.067284, 165.853858)"><g><path d="M 18.34375 -6.25 C 19.394531 -6.25 20.414062 -6.40625 21.40625 -6.71875 C 22.394531 -7.039062 23.125 -7.347656 23.59375 -7.640625 L 24.296875 -8.125 L 27.234375 -2.234375 C 27.128906 -2.160156 26.988281 -2.0625 26.8125 -1.9375 C 26.644531 -1.820312 26.25 -1.597656 25.625 -1.265625 C 25.007812 -0.929688 24.34375 -0.640625 23.625 -0.390625 C 22.914062 -0.148438 21.984375 0.0625 20.828125 0.25 C 19.679688 0.445312 18.492188 0.546875 17.265625 0.546875 C 14.453125 0.546875 11.78125 -0.140625 9.25 -1.515625 C 6.726562 -2.898438 4.695312 -4.804688 3.15625 -7.234375 C 1.613281 -9.660156 0.84375 -12.285156 0.84375 -15.109375 C 0.84375 -17.234375 1.296875 -19.273438 2.203125 -21.234375 C 3.109375 -23.203125 4.3125 -24.882812 5.8125 -26.28125 C 7.320312 -27.675781 9.082031 -28.789062 11.09375 -29.625 C 13.101562 -30.457031 15.160156 -30.875 17.265625 -30.875 C 19.234375 -30.875 21.039062 -30.640625 22.6875 -30.171875 C 24.34375 -29.703125 25.515625 -29.238281 26.203125 -28.78125 L 27.234375 -28.078125 L 24.296875 -22.203125 C 24.117188 -22.347656 23.859375 -22.523438 23.515625 -22.734375 C 23.171875 -22.941406 22.484375 -23.21875 21.453125 -23.5625 C 20.429688 -23.90625 19.394531 -24.078125 18.34375 -24.078125 C 16.675781 -24.078125 15.179688 -23.804688 13.859375 -23.265625 C 12.535156 -22.722656 11.488281 -22.007812 10.71875 -21.125 C 9.945312 -20.25 9.359375 -19.300781 8.953125 -18.28125 C 8.546875 -17.269531 8.34375 -16.234375 8.34375 -15.171875 C 8.34375 -12.867188 9.207031 -10.804688 10.9375 -8.984375 C 12.664062 -7.160156 15.132812 -6.25 18.34375 -6.25 Z M 18.34375 -6.25 "/></g></g></g><g fill="#ffffff" fill-opacity="1"><g transform="translate(219.135065, 165.853858)"><g><path d="M 0.84375 -15.171875 C 0.84375 -19.554688 2.335938 -23.269531 5.328125 -26.3125 C 8.316406 -29.351562 11.921875 -30.875 16.140625 -30.875 C 20.367188 -30.875 23.96875 -29.359375 26.9375 -26.328125 C 29.90625 -23.304688 31.390625 -19.585938 31.390625 -15.171875 C 31.390625 -10.742188 29.929688 -7.015625 27.015625 -3.984375 C 24.097656 -0.960938 20.472656 0.546875 16.140625 0.546875 C 11.703125 0.546875 8.039062 -0.953125 5.15625 -3.953125 C 2.28125 -6.953125 0.84375 -10.691406 0.84375 -15.171875 Z M 8.3125 -15.171875 C 8.3125 -13.578125 8.554688 -12.125 9.046875 -10.8125 C 9.535156 -9.507812 10.390625 -8.40625 11.609375 -7.5 C 12.835938 -6.59375 14.347656 -6.140625 16.140625 -6.140625 C 18.703125 -6.140625 20.640625 -7.019531 21.953125 -8.78125 C 23.265625 -10.539062 23.921875 -12.671875 23.921875 -15.171875 C 23.921875 -17.648438 23.253906 -19.773438 21.921875 -21.546875 C 20.585938 -23.328125 18.660156 -24.21875 16.140625 -24.21875 C 13.640625 -24.21875 11.707031 -23.328125 10.34375 -21.546875 C 8.988281 -19.773438 8.3125 -17.648438 8.3125 -15.171875 Z M 8.3125 -15.171875 "/></g></g></g><g fill="#ffffff" fill-opacity="1"><g transform="translate(262.75991, 165.853858)"><g><path d="M 25.5 -30.3125 L 25.5 -10.765625 C 25.5 -7.046875 24.492188 -4.226562 22.484375 -2.3125 C 20.484375 -0.40625 17.546875 0.546875 13.671875 0.546875 C 9.796875 0.546875 6.851562 -0.40625 4.84375 -2.3125 C 2.84375 -4.226562 1.84375 -7.046875 1.84375 -10.765625 L 1.84375 -30.3125 L 8.75 -30.3125 L 8.75 -12.78125 C 8.75 -10.332031 9.132812 -8.628906 9.90625 -7.671875 C 10.675781 -6.722656 11.929688 -6.25 13.671875 -6.25 C 15.410156 -6.25 16.664062 -6.722656 17.4375 -7.671875 C 18.207031 -8.628906 18.59375 -10.332031 18.59375 -12.78125 L 18.59375 -30.3125 Z M 25.5 -30.3125 "/></g></g></g><g fill="#ffffff" fill-opacity="1"><g transform="translate(301.496945, 165.853858)"><g><path d="M 9.109375 -18.8125 L 9.109375 0 L 2.203125 0 L 2.203125 -30.3125 L 9.109375 -30.3125 L 21.171875 -11.5 L 21.234375 -11.5 L 21.234375 -30.3125 L 28.15625 -30.3125 L 28.15625 0 L 21.234375 0 L 9.1875 -18.8125 Z M 9.109375 -18.8125 "/></g></g></g><g fill="#ffffff" fill-opacity="1"><g transform="translate(343.247523, 165.853858)"><g><path d="M 0.296875 -24.25 L 0.296875 -30.3125 L 21.609375 -30.3125 L 21.609375 -24.25 L 14.40625 -24.25 L 14.40625 0 L 7.5 0 L 7.5 -24.25 Z M 0.296875 -24.25 "/></g></g></g><g fill="#ffffff" fill-opacity="1"><g transform="translate(376.545484, 165.853858)"><g><path d="M 2.203125 -30.3125 L 13.046875 -30.3125 C 15.960938 -30.3125 18.335938 -29.535156 20.171875 -27.984375 C 22.015625 -26.429688 22.9375 -24.207031 22.9375 -21.3125 C 22.9375 -19.082031 22.378906 -17.210938 21.265625 -15.703125 C 20.148438 -14.203125 18.632812 -13.144531 16.71875 -12.53125 L 27.15625 0 L 18.375 0 L 9.109375 -11.984375 L 9.109375 0 L 2.203125 0 Z M 9.109375 -16.875 L 9.921875 -16.875 C 10.554688 -16.875 11.09375 -16.882812 11.53125 -16.90625 C 11.976562 -16.925781 12.484375 -17.007812 13.046875 -17.15625 C 13.609375 -17.300781 14.0625 -17.507812 14.40625 -17.78125 C 14.75 -18.050781 15.039062 -18.441406 15.28125 -18.953125 C 15.53125 -19.472656 15.65625 -20.097656 15.65625 -20.828125 C 15.65625 -21.566406 15.53125 -22.191406 15.28125 -22.703125 C 15.039062 -23.222656 14.75 -23.617188 14.40625 -23.890625 C 14.0625 -24.160156 13.609375 -24.367188 13.046875 -24.515625 C 12.484375 -24.660156 11.976562 -24.742188 11.53125 -24.765625 C 11.09375 -24.796875 10.554688 -24.8125 9.921875 -24.8125 L 9.109375 -24.8125 Z M 9.109375 -16.875 "/></g></g></g><g fill="#ffffff" fill-opacity="1"><g transform="translate(414.253511, 165.853858)"><g><path d="M -1.109375 -30.3125 L 7.203125 -30.3125 L 13.53125 -20.609375 L 19.84375 -30.3125 L 28.15625 -30.3125 L 16.984375 -13.59375 L 16.984375 0 L 10.0625 0 L 10.0625 -13.59375 Z M -1.109375 -30.3125 "/></g></g></g><g fill="#ffffff" fill-opacity="1"><g transform="translate(110.457454, 206.008577)"><g><path d="M 2.296875 0 L 2.296875 -19.78125 L 7.875 -19.78125 C 9.601562 -19.78125 11.128906 -19.398438 12.453125 -18.640625 C 13.773438 -17.878906 14.796875 -16.796875 15.515625 -15.390625 C 16.234375 -13.984375 16.597656 -12.375 16.609375 -10.5625 L 16.609375 -9.296875 C 16.609375 -7.429688 16.242188 -5.796875 15.515625 -4.390625 C 14.796875 -2.984375 13.769531 -1.90625 12.4375 -1.15625 C 11.101562 -0.40625 9.546875 -0.0195312 7.765625 0 Z M 4.90625 -17.640625 L 4.90625 -2.140625 L 7.65625 -2.140625 C 9.664062 -2.140625 11.226562 -2.765625 12.34375 -4.015625 C 13.457031 -5.265625 14.015625 -7.039062 14.015625 -9.34375 L 14.015625 -10.5 C 14.015625 -12.75 13.488281 -14.492188 12.4375 -15.734375 C 11.382812 -16.984375 9.890625 -17.617188 7.953125 -17.640625 Z M 4.90625 -17.640625 "/></g></g></g><g fill="#ffffff" fill-opacity="1"><g transform="translate(150.972021, 206.008577)"><g><path d="M 5.09375 0 L 2.484375 0 L 2.484375 -19.78125 L 5.09375 -19.78125 Z M 5.09375 0 "/></g></g></g><g fill="#ffffff" fill-opacity="1"><g transform="translate(180.808689, 206.008577)"><g><path d="M 16.90625 -2.59375 C 16.226562 -1.632812 15.289062 -0.914062 14.09375 -0.4375 C 12.894531 0.03125 11.5 0.265625 9.90625 0.265625 C 8.289062 0.265625 6.859375 -0.109375 5.609375 -0.859375 C 4.359375 -1.617188 3.390625 -2.695312 2.703125 -4.09375 C 2.023438 -5.488281 1.675781 -7.101562 1.65625 -8.9375 L 1.65625 -10.671875 C 1.65625 -13.648438 2.347656 -15.957031 3.734375 -17.59375 C 5.128906 -19.238281 7.085938 -20.0625 9.609375 -20.0625 C 11.671875 -20.0625 13.332031 -19.53125 14.59375 -18.46875 C 15.851562 -17.414062 16.625 -15.921875 16.90625 -13.984375 L 14.296875 -13.984375 C 13.804688 -16.597656 12.25 -17.90625 9.625 -17.90625 C 7.875 -17.90625 6.546875 -17.289062 5.640625 -16.0625 C 4.742188 -14.84375 4.289062 -13.066406 4.28125 -10.734375 L 4.28125 -9.125 C 4.28125 -6.894531 4.785156 -5.125 5.796875 -3.8125 C 6.816406 -2.507812 8.191406 -1.859375 9.921875 -1.859375 C 10.898438 -1.859375 11.753906 -1.96875 12.484375 -2.1875 C 13.222656 -2.40625 13.832031 -2.769531 14.3125 -3.28125 L 14.3125 -7.734375 L 9.734375 -7.734375 L 9.734375 -9.84375 L 16.90625 -9.84375 Z M 16.90625 -2.59375 "/></g></g></g><g fill="#ffffff" fill-opacity="1"><g transform="translate(222.029677, 206.008577)"><g><path d="M 5.09375 0 L 2.484375 0 L 2.484375 -19.78125 L 5.09375 -19.78125 Z M 5.09375 0 "/></g></g></g><g fill="#ffffff" fill-opacity="1"><g transform="translate(251.866351, 206.008577)"><g><path d="M 15.96875 -17.640625 L 9.609375 -17.640625 L 9.609375 0 L 7.015625 0 L 7.015625 -17.640625 L 0.671875 -17.640625 L 0.671875 -19.78125 L 15.96875 -19.78125 Z M 15.96875 -17.640625 "/></g></g></g><g fill="#ffffff" fill-opacity="1"><g transform="translate(290.737115, 206.008577)"><g><path d="M 13.21875 -5.15625 L 4.9375 -5.15625 L 3.078125 0 L 0.375 0 L 7.9375 -19.78125 L 10.21875 -19.78125 L 17.78125 0 L 15.109375 0 Z M 5.71875 -7.3125 L 12.453125 -7.3125 L 9.078125 -16.5625 Z M 5.71875 -7.3125 "/></g></g></g><g fill="#ffffff" fill-opacity="1"><g transform="translate(331.156581, 206.008577)"><g><path d="M 4.921875 -2.140625 L 14.296875 -2.140625 L 14.296875 0 L 2.296875 0 L 2.296875 -19.78125 L 4.921875 -19.78125 Z M 4.921875 -2.140625 "/></g></g></g><g clip-path="url(#4ce528243b)"><path fill="#ffffff" d="M 21.125 116.445312 L 107.015625 58.269531 L 134.136719 77.492188 L 232.457031 0.09375 L 290.09375 58.269531 L 330.777344 21.527344 L 366.941406 66.601562 L 385.023438 53.675781 L 435.882812 111.082031 L 373.722656 81.234375 L 342.082031 106.492188 L 352.25 77.492188 L 324 46.539062 L 243.964844 111.082031 L 266.363281 66.601562 L 238.109375 32.242188 L 217.765625 58.269531 L 215.507812 27.648438 L 122.835938 101.132812 L 126.226562 83.527344 L 108.144531 72.046875 L 83.28125 95.773438 L 94.582031 77.492188 L 21.125 116.445312 " fill-opacity="1" fill-rule="nonzero"/></g></svg>